<svg width="595" height="357" viewBox="0 0 595 357" fill="none" xmlns="http://www.w3.org/2000/svg">
<circle cx="543" cy="52" r="48" stroke="#FFFCE1" stroke-width="4"/>
<path d="M492.235 69.1467C448.578 90.3484 412.63 110.135 383.182 128.264M224.106 355C434.207 270.203 335.993 245.487 260.624 243.728C260.65 242.612 260.809 241.374 261.114 240.015M261.114 240.015C180.745 262.036 16.4069 315.863 2 355M261.114 240.015C265.168 221.917 295.076 182.508 383.182 128.264M383.182 128.264C131.462 111.282 326.655 37.0122 455.717 2M383.182 128.264C469.724 149.326 631.201 209.867 584.779 283.537" stroke="#FFFCE1" stroke-width="4"/>
<path d="M237 24.5H166M156.5 218C209.7 218 232.333 211.667 237 208.5M28 155C79.2 155 104.667 155 111 155M73 108C127.4 110.8 151.333 109.167 156.5 108" stroke="#FFFCE1" stroke-width="3"/>
<path d="M10.5 66C142.5 60.4 127.833 57.3333 104 56.5" stroke="#FFFCE1" stroke-width="3"/>
</svg>
