<svg width="232" height="340" viewBox="0 0 232 340" fill="none" xmlns="http://www.w3.org/2000/svg">
<circle cx="116.5" cy="50.5" r="48" stroke="#FFFCE1" stroke-width="5"/>
<path d="M103 39C103 43.4729 99.5891 47 95.5 47C91.4109 47 88 43.4729 88 39C88 34.5271 91.4109 31 95.5 31C99.5891 31 103 34.5271 103 39Z" fill="#FFFCE1" stroke="#FFFCE1" stroke-width="2"/>
<path d="M139 39C139 43.4729 135.589 47 131.5 47C127.411 47 124 43.4729 124 39C124 34.5271 127.411 31 131.5 31C135.589 31 139 34.5271 139 39Z" fill="#FFFCE1" stroke="#FFFCE1" stroke-width="2"/>
<line x1="118.5" y1="101" x2="118.5" y2="258" stroke="#FFFCE1" stroke-width="5"/>
<line x1="118.015" y1="259.48" x2="60.0152" y2="338.48" stroke="#FFFCE1" stroke-width="5"/>
<line x1="117.79" y1="256.255" x2="194.79" y2="335.255" stroke="#FFFCE1" stroke-width="5"/>
<path d="M116 167C153 191 227.5 202.2 229.5 55" stroke="#FFFCE1" stroke-width="5"/>
<path d="M116 166.692C79.163 190.627 4.99119 201.796 3 55" stroke="#FFFCE1" stroke-width="5"/>
</svg>
