<svg width="355" height="586" viewBox="0 0 355 586" fill="none" xmlns="http://www.w3.org/2000/svg">
<path d="M171.5 201C171.5 204.558 168.399 207.5 164.5 207.5C160.601 207.5 157.5 204.558 157.5 201C157.5 197.442 160.601 194.5 164.5 194.5C168.399 194.5 171.5 197.442 171.5 201Z" stroke="#FFFCE1"/>
<circle cx="160" cy="106" r="48" stroke="#FFFCE1" stroke-width="4"/>
<path d="M162.5 155.5C160 170 181.5 330.5 162.5 433.5M162.5 433.5C133.5 469 78.6 548.8 91 584M162.5 433.5C208 475 289.5 563.2 251.5 584" stroke="#FFFCE1" stroke-width="3"/>
<path d="M168.5 255.5C195.667 269.833 247.4 241.5 237 13.5" stroke="#FFFCE1" stroke-width="3"/>
<path d="M169.5 259C136.333 290.5 70.7 304.4 73.5 108" stroke="#FFFCE1" stroke-width="3"/>
<path d="M157.5 201C115.833 240.333 26.7 349.6 3.5 472C8.3 448 41.8333 458.667 58 467C83.5 483.667 132.5 505.2 124.5 458C116.5 410.8 161.5 420.667 185 431.5C206.667 461.5 252.6 508.8 263 458C273.4 407.2 323 446.167 346.5 472C383.3 414 246.167 267.167 173 201" stroke="#FFFCE1" stroke-width="3"/>
<circle cx="76" cy="103" r="9.5" stroke="#FFFCE1"/>
<g filter="url(#filter0_d_2_44)">
<circle cx="238" cy="10" r="9.5" stroke="#FFFCE1" shape-rendering="crispEdges"/>
</g>
<path d="M12 521.5C10 547.5 4.5 564.667 2 570" stroke="#FFFCE1" stroke-width="3"/>
<path d="M59.5 519C53.5 544.2 57 561.5 59.5 567" stroke="#FFFCE1" stroke-width="3"/>
<path d="M275 508L283 540V552.5M318 502L335.5 535.5" stroke="#FFFCE1" stroke-width="3"/>
<defs>
<filter id="filter0_d_2_44" x="224" y="0" width="28" height="28" filterUnits="userSpaceOnUse" color-interpolation-filters="sRGB">
<feFlood flood-opacity="0" result="BackgroundImageFix"/>
<feColorMatrix in="SourceAlpha" type="matrix" values="0 0 0 0 0 0 0 0 0 0 0 0 0 0 0 0 0 0 127 0" result="hardAlpha"/>
<feOffset dy="4"/>
<feGaussianBlur stdDeviation="2"/>
<feComposite in2="hardAlpha" operator="out"/>
<feColorMatrix type="matrix" values="0 0 0 0 0 0 0 0 0 0 0 0 0 0 0 0 0 0 0.25 0"/>
<feBlend mode="normal" in2="BackgroundImageFix" result="effect1_dropShadow_2_44"/>
<feBlend mode="normal" in="SourceGraphic" in2="effect1_dropShadow_2_44" result="shape"/>
</filter>
</defs>
</svg>
